<svg width="57" height="57" viewBox="0 0 57 57" fill="none" xmlns="http://www.w3.org/2000/svg">
    <g clip-path="url(#clip0_102_4)">
        <path fill-rule="evenodd" clip-rule="evenodd"
              d="M28.24 0C12.6374 0 0 12.6374 0 28.24C0 40.7362 8.0837 51.2909 19.3091 55.0327C20.7211 55.2798 21.2506 54.4326 21.2506 53.6913C21.2506 53.0206 21.2153 50.7967 21.2153 48.4316C14.12 49.7377 12.2844 46.7019 11.7196 45.1134C11.4019 44.3015 10.0252 41.7952 8.825 41.1245C7.8366 40.595 6.4246 39.2889 8.7897 39.2536C11.0136 39.2183 12.6021 41.301 13.1316 42.1482C15.6732 46.4195 19.7327 45.2193 21.3565 44.478C21.6036 42.6424 22.3449 41.4069 23.1568 40.7009C16.8734 39.9949 10.3076 37.5592 10.3076 26.7574C10.3076 23.6863 11.4019 21.1447 13.2022 19.1679C12.9198 18.4619 11.9314 15.5673 13.4846 11.6843C13.4846 11.6843 15.8497 10.943 21.2506 14.5789C23.5098 13.9435 25.9102 13.6258 28.3106 13.6258C30.711 13.6258 33.1114 13.9435 35.3706 14.5789C40.7715 10.9077 43.1366 11.6843 43.1366 11.6843C44.6898 15.5673 43.7014 18.4619 43.419 19.1679C45.2193 21.1447 46.3136 23.651 46.3136 26.7574C46.3136 37.5945 39.7125 39.9949 33.4291 40.7009C34.4528 41.5834 35.3353 43.2778 35.3353 45.9253C35.3353 49.7024 35.3 52.7382 35.3 53.6913C35.3 54.4326 35.8295 55.3151 37.2415 55.0327C48.3963 51.2909 56.48 40.7009 56.48 28.24C56.48 12.6374 43.8426 0 28.24 0Z"
              fill="currentColor"/>
    </g>
    <defs>
        <clipPath id="clip0_102_4">
            <rect width="56.48" height="56.48" fill="white"/>
        </clipPath>
    </defs>
</svg>
