<svg width="57" height="57" viewBox="0 0 57 57" fill="none" xmlns="http://www.w3.org/2000/svg">
    <path d="M28.4972 1.12969C13.5232 1.12969 1.38469 13.2682 1.38469 28.2422C1.38469 43.2163 13.5232 55.3548 28.4972 55.3548C43.4713 55.3548 55.6098 43.2163 55.6098 28.2422C55.6098 13.2682 43.4713 1.12969 28.4972 1.12969ZM21.8603 39.4798H16.37V21.8115H21.8603V39.4798ZM19.0813 19.6425C17.3472 19.6425 16.226 18.4139 16.226 16.8945C16.226 15.344 17.3811 14.1522 19.1519 14.1522C20.9227 14.1522 22.0072 15.344 22.0411 16.8945C22.0411 18.4139 20.9227 19.6425 19.0813 19.6425ZM41.9123 39.4798H36.422V29.6883C36.422 27.4091 35.6256 25.8614 33.6402 25.8614C32.1236 25.8614 31.2226 26.9092 30.8244 27.9175C30.6775 28.2761 30.6408 28.7845 30.6408 29.29V39.477H25.1477V27.4458C25.1477 25.2401 25.0771 23.3959 25.0037 21.8087H29.7738L30.0252 24.2629H30.1353C30.8583 23.1106 32.6291 21.4104 35.5917 21.4104C39.2039 21.4104 41.9123 23.8308 41.9123 29.033V39.4798Z"
          fill="currentColor"/>
</svg>
